<svg xmlns="http://www.w3.org/2000/svg" viewBox="0 0 30 30">
    <g fill="none" fill-rule="evenodd">
        <path fill="#1E8CF8" d="M5.2 3c-.33 0-.64.13-.86.35-.23.21-.35.5-.34.8v24.7c0 .3.11.59.34.8.22.22.53.34.85.35h19.57c.32 0 .63-.13.85-.34.23-.22.35-.5.34-.8V4.15c.01-.3-.1-.6-.33-.81a1.26 1.26 0 00-.86-.35H5.2z"/>
        <path fill="#F8F8F8" fill-rule="nonzero" d="M6 5h17.96v23H6z"/>
        <path fill="#001E38" fill-rule="nonzero" d="M17.97 2.16V1.09c0-.29-.12-.56-.35-.77-.22-.2-.53-.32-.84-.32h-3.6c-.32 0-.62.12-.85.32-.22.2-.34.48-.34.77v1.07h-2.4a.6.6 0 00-.43.14.48.48 0 00-.17.4v3.76c-.01.15.05.29.16.4.12.1.28.15.44.14h10.78a.6.6 0 00.43-.15c.11-.1.17-.24.16-.39V2.7a.48.48 0 00-.16-.39.6.6 0 00-.43-.14h-2.4z"/>
        <path stroke="#001E38" stroke-linecap="round" stroke-linejoin="round" stroke-width="1.5" d="M8.99 13.06h11.97M8.99 16.06h11.97M8.99 19.06h11.97M8.99 22.06h11.97"/>
    </g>
</svg>
