<svg xmlns="http://www.w3.org/2000/svg" viewBox="0 0 348 78">
    <g fill="none" fill-rule="evenodd">
        <path fill="#1E8CF8" d="M125.72 40.03a9.14 9.14 0 0 0-3.22-5.05 9.62 9.62 0 0 0-5.95-2 9.1 9.1 0 0 0-9.04 7.05h18.2zM105 53.83a15.69 15.69 0 0 1 0-22.56 16.32 16.32 0 0 1 22.8-.03c3.02 2.9 4.81 6.88 4.84 11.16 0 1.87-1.38 3.17-3.31 3.17H107.7a9.12 9.12 0 0 0 3.22 4.68 8.9 8.9 0 0 0 5.52 1.84c2.6 0 4.6-.8 6.05-2.37a3.31 3.31 0 0 1 3.35-.64c.65.24 1.19.7 1.63 1.4a3.19 3.19 0 0 1-.71 4.38 13.09 13.09 0 0 1-4 2.55c-1.79.7-3.92 1.06-6.32 1.06A16.3 16.3 0 0 1 105 53.83z"/>
        <path fill="#13E5FF" d="M303.88 54.83v-.47c-2.54 2.4-5.52 3.78-8.66 3.78-3.9 0-7.21-1.6-9.55-4.41-2.33-2.8-3.65-6.68-3.65-11.1V29.87a3.28 3.28 0 0 1 3.38-3.28c1.9 0 3.35 1.4 3.35 3.28V42.7c0 2.64.65 4.78 1.97 6.38a6.52 6.52 0 0 0 5.28 2.44 7.4 7.4 0 0 0 5.65-2.47 8.85 8.85 0 0 0 2.23-6.18v-12.9c0-1.87 1.45-3.31 3.35-3.31.91 0 1.83.37 2.4.93.65.64.98 1.44.98 2.38v24.86c0 .94-.33 1.7-1.01 2.34-.71.67-1.52 1-2.44 1a3.25 3.25 0 0 1-3.28-3.34M269.5 54.83V18.6a3.27 3.27 0 0 1 3.38-3.27c1.9 0 3.35 1.4 3.35 3.27v36.23a3.25 3.25 0 0 1-3.35 3.28c-1.9 0-3.38-1.4-3.38-3.28M255.22 49.08c1.73-1.7 2.7-4 2.7-6.51a9.1 9.1 0 0 0-2.7-6.55 9.42 9.42 0 0 0-6.67-2.68 9.4 9.4 0 0 0-6.63 2.68 9.14 9.14 0 0 0-2.78 6.55 9.36 9.36 0 0 0 9.4 9.22c2.58 0 4.95-1 6.68-2.7m-16.14 6.34a3.28 3.28 0 0 1-3.32 2.68c-1.9 0-3.35-1.4-3.35-3.28V18.61a3.24 3.24 0 0 1 3.35-3.28c1.9 0 3.38 1.4 3.38 3.28v11.02c2.75-1.9 6-3 9.41-3 4.37 0 8.43 1.7 11.4 4.64a15.85 15.85 0 0 1 0 22.53 16.2 16.2 0 0 1-20.87 1.63"/>
        <path fill="#1E8CF8" d="M205.14 66.9c0-.57.13-1.14.4-1.7l4.6-10.23-10.82-23.63c-.2-.44-.3-.9-.3-1.4 0-.44.06-.8.2-1.18.3-.83.9-1.43 1.79-1.87.44-.2.88-.3 1.32-.3.91 0 1.69.3 2.33.94.3.3.58.67.78 1.1l8.26 18.48 8.39-18.48a3.37 3.37 0 0 1 1.9-1.77c.33-.17.74-.23 1.25-.23.84 0 1.72.4 2.4 1.06.64.64.95 1.44.95 2.38-.04.47-.17.9-.34 1.3l-16.85 36.5a3.37 3.37 0 0 1-1.9 1.77c-.37.16-.81.23-1.28.23-.44 0-.89-.1-1.32-.3a2.8 2.8 0 0 1-1.76-2.68zM178.64 57.14c-2.33-1-4-2.44-5-4.31-.35-.6-.51-1.2-.51-1.84 0-.57.13-1.07.4-1.47a3 3 0 0 1 2.7-1.47c1.1 0 2.17.5 3.02 1.57 1.49 2.14 3.11 3 5.92 3 1.25 0 2.4-.3 3.39-.9a2.72 2.72 0 0 0 1.48-2.44c0-.67-.16-1.2-.54-1.63a6.09 6.09 0 0 0-3.11-1.88l-1.83-.56c-3.21-1.1-5.55-2.11-7.34-3.45-2.2-1.57-3.32-3.57-3.32-6.01 0-2.7 1.29-5.08 3.42-6.72a12.8 12.8 0 0 1 7.72-2.47c2.03 0 3.96.37 5.75 1.1 2 .84 3.35 1.94 4.1 3.38.23.46.37.97.37 1.47 0 .67-.24 1.27-.75 1.8a2.89 2.89 0 0 1-3.32.77l-1.35-1c-.64-.44-1.08-.74-1.28-.84-.99-.57-2-.83-3.05-.83-2.88 0-4.84 1.1-4.84 3.14 0 .97.54 1.77 1.66 2.47.95.57 2.16 1.04 4.1 1.6 3.14.98 5.37 1.84 7.1 3.18a7.48 7.48 0 0 1 3.05 6.22 8.66 8.66 0 0 1-3.25 6.71 12.51 12.51 0 0 1-8.12 2.74c-2.37 0-4.57-.43-6.57-1.33M159.05 49.08c1.72-1.7 2.7-4 2.7-6.51a9.1 9.1 0 0 0-2.7-6.55 9.43 9.43 0 0 0-6.67-2.68 9.32 9.32 0 0 0-9.37 9.23c0 2.5 1.05 4.8 2.77 6.51a9.38 9.38 0 0 0 13.27 0m-18.07 4.75a15.73 15.73 0 0 1 0-22.53 16.2 16.2 0 0 1 11.4-4.67c4.37 0 8.36 1.67 11.34 4.6a15.87 15.87 0 0 1 4.77 11.2V54.7a3.4 3.4 0 0 1-3.45 3.4 3.28 3.28 0 0 1-3.29-3.03 14.64 14.64 0 0 1-9.37 3.44c-4.36 0-8.42-1.74-11.4-4.68"/>
        <path fill="#13E5FF" d="M340.9 40.03a9.14 9.14 0 0 0-3.22-5.05 9.62 9.62 0 0 0-5.95-2 9.1 9.1 0 0 0-9.04 7.05h18.21zm-20.71 13.8a15.69 15.69 0 0 1 0-22.56 16.32 16.32 0 0 1 22.8-.03c3.02 2.9 4.81 6.88 4.85 11.16 0 1.87-1.4 3.17-3.32 3.17H322.9a9.12 9.12 0 0 0 3.21 4.68 8.89 8.89 0 0 0 5.52 1.84c2.6 0 4.6-.8 6.05-2.37a3.31 3.31 0 0 1 3.35-.64c.65.24 1.19.7 1.63 1.4a3.19 3.19 0 0 1-.71 4.38 13.08 13.08 0 0 1-4 2.55c-1.79.7-3.92 1.06-6.32 1.06a16.3 16.3 0 0 1-11.44-4.64z"/>
        <g>
            <path fill="#13E5FF" d="M32.62 40.68c1.69 0 3.06 1.35 3.06 3.02v24.4a3.51 3.51 0 0 0 3.54 3.48 3.5 3.5 0 0 0 3.54-3.47 3.04 3.04 0 0 1 3.06-3.02c1.7 0 3.07 1.35 3.07 3.02a9.6 9.6 0 0 1-9.67 9.5 9.6 9.6 0 0 1-9.67-9.5V43.7a3.04 3.04 0 0 1 3.07-3.02"/>
            <path fill="#1E8CF8" d="M51.8 29.71c-3.56 0-6.96 1.18-9.7 3.3a15.8 15.8 0 0 0-19.07.09 15.79 15.79 0 0 0-15.84-1.95A26.52 26.52 0 0 1 32.62 12.4c11.9 0 22.07 7.85 25.37 18.56a15.87 15.87 0 0 0-6.2-1.26M35.7 6.53V3.22A3.04 3.04 0 0 0 32.61.2a3.04 3.04 0 0 0-3.07 3.02v3.31C13.1 8.05.11 21.69 0 38.23a3.02 3.02 0 0 0 3.06 3.03c1 0 1.95-.47 2.53-1.3a9.57 9.57 0 0 1 7.85-4.07c2.8 0 5.44 1.2 7.25 3.3a3.2 3.2 0 0 0 4.67 0 9.57 9.57 0 0 1 7.26-3.3c2.76 0 5.39 1.18 7.2 3.24a3 3 0 0 0 2.34 1.05c.9 0 1.75-.4 2.33-1.08a9.57 9.57 0 0 1 7.3-3.36 9.57 9.57 0 0 1 7.85 4.06 3.1 3.1 0 0 0 3.45 1.17 3.02 3.02 0 0 0 2.14-2.91c-.2-16.45-13.19-30-29.55-31.53"/>
        </g>
    </g>
</svg>
