<svg xmlns="http://www.w3.org/2000/svg" viewBox="0 0 29 30">
  <defs>
    <linearGradient id="user" x1="3.1%" y1="50%" y2="50%">
      <stop offset="0%" stop-color="#1E8CF8"/>
      <stop offset="100%" stop-color="#1364DD"/>
    </linearGradient>
  </defs>
  <g fill="none" fill-rule="evenodd">
    <path fill="url(#user)" fill-rule="nonzero" d="M14.5 20.5c4 0 7.7 1.6 10.4 4.5a15 15 0 0 0-.2-20.7 14.3 14.3 0 0 0-20.4 0A15 15 0 0 0 4.1 25c2.7-2.9 6.5-4.5 10.4-4.5z" transform="translate(0 1)"/>
    <path fill="#FFF" fill-rule="nonzero" d="M21 12.5a6.5 6.5 0 1 1-13 0 6.5 6.5 0 0 1 13 0z"/>
    <g transform="translate(9 19)">
      <path fill="#D2262A" fill-rule="nonzero" d="M10 0a8 8 0 0 0-4 1.2l.2.6v.4c0 .2 0 .4-.2.5.5.4 2 1.3 4 1.3.7-.6 1-1.3 1-2s-.3-1.4-1-2M1 0c2 0 3.5 1 4 1.2l-.2.6v.4c0 .2 0 .4.2.5C4.5 3.2 3 4 1 4c-.7-.6-1-1.3-1-2S.3.6 1 0"/>
      <rect width="3" height="2" x="4" y="1" fill="#FF3338" rx="1"/>
    </g>
  </g>
</svg>
